<?xml version="1.0" encoding="UTF-8"?>
<svg version="1.1" xmlns="http://www.w3.org/2000/svg" width="496" height="496">
<path d="M0 0 C163.68 0 327.36 0 496 0 C496 163.68 496 327.36 496 496 C332.32 496 168.64 496 0 496 C0 332.32 0 168.64 0 0 Z " fill="#0F005F" transform="translate(0,0)"/>
<path d="M0 0 C89.1 0 178.2 0 270 0 C270 7.26 270 14.52 270 22 C180.9 22 91.8 22 0 22 C0 14.74 0 7.48 0 0 Z " fill="#F7F7FA" transform="translate(113,322)"/>
<path d="M0 0 C89.1 0 178.2 0 270 0 C270 7.26 270 14.52 270 22 C180.9 22 91.8 22 0 22 C0 14.74 0 7.48 0 0 Z " fill="#F7F7FA" transform="translate(113,152)"/>
<path d="M0 0 C1.02125977 0.00491455 2.04251953 0.0098291 3.09472656 0.01489258 C14.91321137 0.19867284 24.20298759 3.05975563 34.75 8.3125 C34.2597542 13.96369704 32.00848055 17.90954519 29.1875 22.6875 C28.55038086 23.79158203 28.55038086 23.79158203 27.90039062 24.91796875 C26.85843859 26.72089699 25.80533146 28.51737053 24.75 30.3125 C23.95335937 29.90257812 23.15671875 29.49265625 22.3359375 29.0703125 C21.27632813 28.53148437 20.21671875 27.99265625 19.125 27.4375 C17.55878906 26.63699219 17.55878906 26.63699219 15.9609375 25.8203125 C7.86690407 22.01946468 -0.99014881 20.42383572 -9.76171875 23.0703125 C-11.7254636 24.02039096 -13.46410747 25.06368517 -15.25 26.3125 C-16.11625 26.84875 -16.9825 27.385 -17.875 27.9375 C-25.50558865 35.56808865 -28.25558206 44.19090635 -28.5625 54.6875 C-28.37702875 64.71453934 -25.61217422 73.65527791 -18.6171875 81.03515625 C-9.54136589 89.31735221 -2.17297005 88.3125 10.75 88.3125 C11.08 76.1025 11.41 63.8925 11.75 51.3125 C19.34 51.3125 26.93 51.3125 34.75 51.3125 C34.75 69.1325 34.75 86.9525 34.75 105.3125 C15.16684808 111.84021731 -6.06466025 113.78100119 -25.1875 104.95703125 C-41.00558529 96.94052879 -48.8663449 84.46346529 -54.3671875 67.9609375 C-55.33367861 63.96667778 -55.59515605 60.20933891 -55.5625 56.125 C-55.55686035 55.38032471 -55.5512207 54.63564941 -55.54541016 53.8684082 C-55.22329328 39.06219442 -49.79151217 26.19763373 -39.53515625 15.49609375 C-28.11540402 4.58388606 -15.67559148 -0.08868611 0 0 Z " fill="#FCFCFD" transform="translate(347.25,192.6875)"/>
<path d="M0 0 C0.95487305 -0.00314209 1.90974609 -0.00628418 2.89355469 -0.00952148 C12.47799649 0.14936755 21.9331662 2.1228331 30.5625 6.4375 C29.94419051 11.46224293 28.43273224 15.68470494 26.5 20.3125 C26.21833984 21.00085938 25.93667969 21.68921875 25.64648438 22.3984375 C24.95734734 24.08039909 24.26069202 25.75927697 23.5625 27.4375 C20.11250358 26.85542679 17.26840937 25.96157727 14.125 24.4375 C6.78747733 21.11757171 -2.64798293 19.62759448 -10.51171875 22.0859375 C-13.6253446 23.85007418 -14.46856661 25.52742966 -15.625 28.875 C-15.78857141 32.53150757 -15.78857141 32.53150757 -13.3203125 34.984375 C-10.3013218 37.55338064 -7.80498163 38.81865579 -4.125 40.25 C-2.88521551 40.75544291 -1.64699173 41.26472683 -0.41015625 41.77734375 C0.23550293 42.04401855 0.88116211 42.31069336 1.54638672 42.58544922 C13.71240776 47.72705898 24.74879234 52.76135664 30.7421875 65.22070312 C32.14874999 69.02177079 32.24272122 72.66780435 32.1875 76.6875 C32.17984619 77.51725342 32.17219238 78.34700684 32.16430664 79.2019043 C31.86627865 87.51518901 29.44278066 94.08768766 23.8515625 100.35546875 C22.16474283 101.90108406 20.47084654 103.17924953 18.5625 104.4375 C18.00691406 104.82421875 17.45132813 105.2109375 16.87890625 105.609375 C9.57564553 110.26457121 1.20959388 110.80657769 -7.25 110.75 C-8.56158081 110.74262817 -8.56158081 110.74262817 -9.8996582 110.73510742 C-20.63942335 110.5413923 -29.34959526 108.24366136 -38.4375 102.4375 C-36.27586487 95.49751352 -33.5438786 89.00632431 -30.4375 82.4375 C-27.93150083 83.43542467 -25.4297171 84.44072261 -22.9375 85.47265625 C-21.7 85.98119141 -21.7 85.98119141 -20.4375 86.5 C-19.2 87.01240234 -19.2 87.01240234 -17.9375 87.53515625 C-10.61729643 90.17729223 -2.07294284 90.79308886 5.25 88.0625 C7.656758 86.64455855 7.656758 86.64455855 8.5625 84.4375 C9.06345023 81.56443772 9.06345023 81.56443772 8.5625 78.4375 C5.16778747 74.40510666 1.9965657 72.46607134 -2.875 70.5625 C-4.11719394 70.05658648 -5.35804468 69.54736465 -6.59765625 69.03515625 C-7.23074707 68.77492676 -7.86383789 68.51469727 -8.51611328 68.24658203 C-20.89484895 63.0339861 -31.53077541 57.67278157 -37.36328125 44.953125 C-39.96535709 36.43724044 -40.07975469 26.8115207 -36.1875 18.6875 C-33.02939145 13.26802977 -29.50143995 9.12814754 -24.1875 5.75 C-23.29546875 5.16863281 -22.4034375 4.58726562 -21.484375 3.98828125 C-14.53898485 0.45325575 -7.65914344 0.02090819 0 0 Z " fill="#FBFBFC" transform="translate(250.4375,192.5625)"/>
<path d="M0 0 C1 3 1 3 0.19555664 5.0847168 C-0.44071655 6.25514526 -0.44071655 6.25514526 -1.08984375 7.44921875 C-1.77143555 8.72055664 -1.77143555 8.72055664 -2.46679688 10.01757812 C-2.95212891 10.89865234 -3.43746094 11.77972656 -3.9375 12.6875 C-4.41896484 13.58017578 -4.90042969 14.47285156 -5.39648438 15.39257812 C-6.58876897 17.60007534 -7.79017894 19.80207933 -9 22 C-10.98265234 21.01099182 -12.9624765 20.01944538 -14.9296875 19 C-15.57164062 18.67 -16.21359375 18.34 -16.875 18 C-17.51179688 17.67 -18.14859375 17.34 -18.8046875 17 C-26.51356887 13.48848108 -34.63667948 12.35652011 -42.85546875 14.875 C-51.29010344 18.75416633 -55.65016338 24.40164774 -59.23828125 32.7890625 C-62.63689438 42.65375498 -62.23716943 54.47845196 -58 64 C-54.31380473 71.4818815 -49.46171853 75.40399107 -42 79 C-31.58245849 82.47251384 -20.6041516 79.53578255 -10.9921875 75.06640625 C-9.65454695 74.39112394 -8.32598682 73.6978878 -7 73 C-6.34 73 -5.68 73 -5 73 C-5 81.25 -5 89.5 -5 98 C-24.72362246 103.91708674 -43.80930254 104.73678024 -62.25 94.8125 C-75.34995938 86.6898339 -83.0604248 75.16262916 -87.08203125 60.421875 C-90.55891343 45.52190934 -88.03019584 31.09434463 -80.8125 17.75 C-73.33589311 5.76219149 -62.34436279 -2.40885267 -49 -7 C-33.10305601 -10.64304966 -13.74498062 -9.27644783 0 0 Z " fill="#FBFBFC" transform="translate(201,201)"/>
</svg>
